<svg xmlns="http://www.w3.org/2000/svg" xmlns:xlink="http://www.w3.org/1999/xlink"><symbol fill="none" stroke="currentColor" stroke-linecap="round" stroke-linejoin="round" class="aalucide aalucide-badge-plus" viewBox="0 0 24 24" id="badge-plus" xmlns="http://www.w3.org/2000/svg"><path d="M3.85 8.62a4 4 0 0 1 4.78-4.77 4 4 0 0 1 6.74 0 4 4 0 0 1 4.78 4.78 4 4 0 0 1 0 6.74 4 4 0 0 1-4.77 4.78 4 4 0 0 1-6.75 0 4 4 0 0 1-4.78-4.77 4 4 0 0 1 0-6.76M12 8v8m-4-4h8"/></symbol><symbol fill="none" stroke="currentColor" stroke-linecap="round" stroke-linejoin="round" class="ablucide ablucide-check" viewBox="0 0 24 24" id="check" xmlns="http://www.w3.org/2000/svg"><path d="M20 6 9 17l-5-5"/></symbol><symbol fill="none" stroke="currentColor" stroke-linecap="round" stroke-linejoin="round" class="aclucide aclucide-circle-chevron-up" viewBox="0 0 24 24" id="circle-chevron" xmlns="http://www.w3.org/2000/svg"><circle cx="12" cy="12" r="10"/><path d="m8 14 4-4 4 4"/></symbol><symbol viewBox="0 0 1024 1024" id="discord" xmlns="http://www.w3.org/2000/svg"><circle cx="512" cy="512" r="512" style="fill:#5865f2"/><path d="M689.43 349a422.2 422.2 0 0 0-104.22-32.32 1.58 1.58 0 0 0-1.68.79 294 294 0 0 0-13 26.66 389.8 389.8 0 0 0-117.05 0 270 270 0 0 0-13.18-26.66 1.64 1.64 0 0 0-1.68-.79A421 421 0 0 0 334.44 349a1.5 1.5 0 0 0-.69.59c-66.37 99.17-84.55 195.9-75.63 291.41a1.76 1.76 0 0 0 .67 1.2 424.6 424.6 0 0 0 127.85 64.63 1.66 1.66 0 0 0 1.8-.59 303.5 303.5 0 0 0 26.15-42.54 1.62 1.62 0 0 0-.89-2.25 279.6 279.6 0 0 1-39.94-19 1.64 1.64 0 0 1-.16-2.72c2.68-2 5.37-4.1 7.93-6.22a1.58 1.58 0 0 1 1.65-.22c83.79 38.26 174.51 38.26 257.31 0a1.58 1.58 0 0 1 1.68.2c2.56 2.11 5.25 4.23 8 6.24a1.64 1.64 0 0 1-.14 2.72 262.4 262.4 0 0 1-40 19 1.63 1.63 0 0 0-.87 2.28 341 341 0 0 0 26.13 42.52 1.62 1.62 0 0 0 1.8.61 423.2 423.2 0 0 0 128-64.63 1.64 1.64 0 0 0 .67-1.18c10.68-110.44-17.88-206.38-75.7-291.42a1.3 1.3 0 0 0-.63-.63M427.09 582.85c-25.23 0-46-23.16-46-51.6s20.38-51.6 46-51.6c25.83 0 46.42 23.36 46 51.6.02 28.44-20.37 51.6-46 51.6m170.13 0c-25.23 0-46-23.16-46-51.6s20.38-51.6 46-51.6c25.83 0 46.42 23.36 46 51.6.01 28.44-20.17 51.6-46 51.6" style="fill:#fff"/></symbol><symbol fill="none" stroke="currentColor" stroke-linecap="round" stroke-linejoin="round" class="aelucide aelucide-ellipsis-vertical" viewBox="0 0 24 24" id="ellipsis-vertical" xmlns="http://www.w3.org/2000/svg"><circle cx="12" cy="12" r="1"/><circle cx="12" cy="5" r="1"/><circle cx="12" cy="19" r="1"/></symbol><symbol fill="none" stroke="currentColor" stroke-linecap="round" stroke-linejoin="round" class="aglucide aglucide-eye" viewBox="0 0 24 24" id="eye" xmlns="http://www.w3.org/2000/svg"><path d="M2.062 12.348a1 1 0 0 1 0-.696 10.75 10.75 0 0 1 19.876 0 1 1 0 0 1 0 .696 10.75 10.75 0 0 1-19.876 0"/><circle cx="12" cy="12" r="3"/></symbol><symbol fill="none" stroke="currentColor" stroke-linecap="round" stroke-linejoin="round" class="aflucide aflucide-eye-off" viewBox="0 0 24 24" id="eye-off" xmlns="http://www.w3.org/2000/svg"><path d="M10.733 5.076a10.744 10.744 0 0 1 11.205 6.575 1 1 0 0 1 0 .696 10.8 10.8 0 0 1-1.444 2.49m-6.41-.679a3 3 0 0 1-4.242-4.242"/><path d="M17.479 17.499a10.75 10.75 0 0 1-15.417-5.151 1 1 0 0 1 0-.696 10.75 10.75 0 0 1 4.446-5.143M2 2l20 20"/></symbol><symbol fill="none" stroke="currentColor" stroke-linecap="round" stroke-linejoin="round" class="ahlucide ahlucide-folder-plus" viewBox="0 0 24 24" id="folder-plus" xmlns="http://www.w3.org/2000/svg"><path d="M12 10v6m-3-3h6m5 7a2 2 0 0 0 2-2V8a2 2 0 0 0-2-2h-7.9a2 2 0 0 1-1.69-.9L9.6 3.9A2 2 0 0 0 7.93 3H4a2 2 0 0 0-2 2v13a2 2 0 0 0 2 2Z"/></symbol><symbol viewBox="0 0 48 48" id="google" xmlns="http://www.w3.org/2000/svg"><path fill="#FFC107" d="M43.611 20.083H42V20H24v8h11.303c-1.649 4.657-6.08 8-11.303 8-6.627 0-12-5.373-12-12s5.373-12 12-12c3.059 0 5.842 1.154 7.961 3.039l5.657-5.657C34.046 6.053 29.268 4 24 4 12.955 4 4 12.955 4 24s8.955 20 20 20 20-8.955 20-20c0-1.341-.138-2.65-.389-3.917"/><path fill="#FF3D00" d="m6.306 14.691 6.571 4.819C14.655 15.108 18.961 12 24 12c3.059 0 5.842 1.154 7.961 3.039l5.657-5.657C34.046 6.053 29.268 4 24 4 16.318 4 9.656 8.337 6.306 14.691"/><path fill="#4CAF50" d="M24 44c5.166 0 9.86-1.977 13.409-5.192l-6.19-5.238A11.9 11.9 0 0 1 24 36c-5.202 0-9.619-3.317-11.283-7.946l-6.522 5.025C9.505 39.556 16.227 44 24 44"/><path fill="#1976D2" d="M43.611 20.083H42V20H24v8h11.303a12.04 12.04 0 0 1-4.087 5.571l.003-.002 6.19 5.238C36.971 39.205 44 34 44 24c0-1.341-.138-2.65-.389-3.917"/></symbol><symbol fill="none" stroke="currentColor" stroke-linecap="round" stroke-linejoin="round" class="ajlucide ajlucide-grip-vertical" viewBox="0 0 24 24" id="grip-vertical" xmlns="http://www.w3.org/2000/svg"><circle cx="9" cy="12" r="1"/><circle cx="9" cy="5" r="1"/><circle cx="9" cy="19" r="1"/><circle cx="15" cy="12" r="1"/><circle cx="15" cy="5" r="1"/><circle cx="15" cy="19" r="1"/></symbol><symbol fill="none" stroke="currentColor" stroke-linecap="round" stroke-linejoin="round" class="aklucide aklucide-group" viewBox="0 0 24 24" id="group" xmlns="http://www.w3.org/2000/svg"><path d="M3 7V5c0-1.1.9-2 2-2h2m10 0h2c1.1 0 2 .9 2 2v2m0 10v2c0 1.1-.9 2-2 2h-2M7 21H5c-1.1 0-2-.9-2-2v-2"/><rect width="7" height="5" x="7" y="7" rx="1"/><rect width="7" height="5" x="10" y="12" rx="1"/></symbol><symbol fill="none" stroke="currentColor" stroke-linecap="round" stroke-linejoin="round" class="allucide allucide-house" viewBox="0 0 24 24" id="house" xmlns="http://www.w3.org/2000/svg"><path d="M15 21v-8a1 1 0 0 0-1-1h-4a1 1 0 0 0-1 1v8"/><path d="M3 10a2 2 0 0 1 .709-1.528l7-5.999a2 2 0 0 1 2.582 0l7 5.999A2 2 0 0 1 21 10v9a2 2 0 0 1-2 2H5a2 2 0 0 1-2-2z"/></symbol><symbol fill="none" stroke="currentColor" stroke-linecap="round" stroke-linejoin="round" class="amlucide amlucide-lock-keyhole" viewBox="0 0 24 24" id="lock-keyhole" xmlns="http://www.w3.org/2000/svg"><circle cx="12" cy="16" r="1"/><rect width="18" height="12" x="3" y="10" rx="2"/><path d="M7 10V7a5 5 0 0 1 10 0v3"/></symbol><symbol fill="none" stroke="currentColor" stroke-linecap="round" stroke-linejoin="round" class="anlucide anlucide-mail" viewBox="0 0 24 24" id="mail" xmlns="http://www.w3.org/2000/svg"><rect width="20" height="16" x="2" y="4" rx="2"/><path d="m22 7-8.97 5.7a1.94 1.94 0 0 1-2.06 0L2 7"/></symbol><symbol fill="none" stroke="currentColor" stroke-linecap="round" stroke-linejoin="round" class="aolucide aolucide-menu" viewBox="0 0 24 24" id="menu" xmlns="http://www.w3.org/2000/svg"><path d="M4 12h16M4 6h16M4 18h16"/></symbol><symbol fill="none" stroke="currentColor" stroke-linecap="round" stroke-linejoin="round" class="aplucide aplucide-minus" viewBox="0 0 24 24" id="minus" xmlns="http://www.w3.org/2000/svg"><path d="M5 12h14"/></symbol><symbol fill="none" stroke="currentColor" stroke-linecap="round" stroke-linejoin="round" class="aqlucide aqlucide-mouse-pointer-2" viewBox="0 0 24 24" id="mouse-pointer-2" xmlns="http://www.w3.org/2000/svg"><path d="M4.037 4.688a.495.495 0 0 1 .651-.651l16 6.5a.5.5 0 0 1-.063.947l-6.124 1.58a2 2 0 0 0-1.438 1.435l-1.579 6.126a.5.5 0 0 1-.947.063z"/></symbol><symbol fill="none" stroke="currentColor" stroke-linecap="round" stroke-linejoin="round" class="aslucide aslucide-pencil" viewBox="0 0 24 24" id="pencil" xmlns="http://www.w3.org/2000/svg"><path d="M21.174 6.812a1 1 0 0 0-3.986-3.987L3.842 16.174a2 2 0 0 0-.5.83l-1.321 4.352a.5.5 0 0 0 .623.622l4.353-1.32a2 2 0 0 0 .83-.497zM15 5l4 4"/></symbol><symbol fill="none" stroke="currentColor" stroke-linecap="round" stroke-linejoin="round" stroke-width="2" class="arlucide arlucide-pencil-off-icon arlucide-pencil-off" viewBox="0 0 24 24" id="pencil-off" xmlns="http://www.w3.org/2000/svg"><path d="m10 10-6.157 6.162a2 2 0 0 0-.5.833l-1.322 4.36a.5.5 0 0 0 .622.624l4.358-1.323a2 2 0 0 0 .83-.5L14 13.982m-1.171-6.81 4.359-4.346a1 1 0 1 1 3.986 3.986l-4.353 4.353M15 5l4 4M2 2l20 20"/></symbol><symbol fill="none" stroke="currentColor" stroke-linecap="round" stroke-linejoin="round" stroke-width="2" class="atlucide atlucide-pin-icon atlucide-pin" viewBox="0 0 24 24" id="pin" xmlns="http://www.w3.org/2000/svg"><path d="M12 17v5M9 10.76a2 2 0 0 1-1.11 1.79l-1.78.9A2 2 0 0 0 5 15.24V16a1 1 0 0 0 1 1h12a1 1 0 0 0 1-1v-.76a2 2 0 0 0-1.11-1.79l-1.78-.9A2 2 0 0 1 15 10.76V7a1 1 0 0 1 1-1 2 2 0 0 0 0-4H8a2 2 0 0 0 0 4 1 1 0 0 1 1 1z"/></symbol><symbol fill="none" stroke="currentColor" stroke-linecap="round" stroke-linejoin="round" class="aulucide aulucide-plus" viewBox="0 0 24 24" id="plus" xmlns="http://www.w3.org/2000/svg"><path d="M5 12h14m-7-7v14"/></symbol><symbol fill="none" stroke="currentColor" stroke-linecap="round" stroke-linejoin="round" class="avlucide avlucide-settings" viewBox="0 0 24 24" id="settings" xmlns="http://www.w3.org/2000/svg"><path d="M12.22 2h-.44a2 2 0 0 0-2 2v.18a2 2 0 0 1-1 1.73l-.43.25a2 2 0 0 1-2 0l-.15-.08a2 2 0 0 0-2.73.73l-.22.38a2 2 0 0 0 .73 2.73l.15.1a2 2 0 0 1 1 1.72v.51a2 2 0 0 1-1 1.74l-.15.09a2 2 0 0 0-.73 2.73l.22.38a2 2 0 0 0 2.73.73l.15-.08a2 2 0 0 1 2 0l.43.25a2 2 0 0 1 1 1.73V20a2 2 0 0 0 2 2h.44a2 2 0 0 0 2-2v-.18a2 2 0 0 1 1-1.73l.43-.25a2 2 0 0 1 2 0l.15.08a2 2 0 0 0 2.73-.73l.22-.39a2 2 0 0 0-.73-2.73l-.15-.08a2 2 0 0 1-1-1.74v-.5a2 2 0 0 1 1-1.74l.15-.09a2 2 0 0 0 .73-2.73l-.22-.38a2 2 0 0 0-2.73-.73l-.15.08a2 2 0 0 1-2 0l-.43-.25a2 2 0 0 1-1-1.73V4a2 2 0 0 0-2-2"/><circle cx="12" cy="12" r="3"/></symbol><symbol fill="none" stroke="currentColor" stroke-linecap="round" stroke-linejoin="round" class="awlucide awlucide-shield-alert" viewBox="0 0 24 24" id="shield-alert" xmlns="http://www.w3.org/2000/svg"><path d="M20 13c0 5-3.5 7.5-7.66 8.95a1 1 0 0 1-.67-.01C7.5 20.5 4 18 4 13V6a1 1 0 0 1 1-1c2 0 4.5-1.2 6.24-2.72a1.17 1.17 0 0 1 1.52 0C14.51 3.81 17 5 19 5a1 1 0 0 1 1 1zm-8-5v4m0 4h.01"/></symbol><symbol fill="none" stroke="currentColor" stroke-linecap="round" stroke-linejoin="round" class="axlucide axlucide-square-x" viewBox="0 0 24 24" id="square-x" xmlns="http://www.w3.org/2000/svg"><rect width="18" height="18" x="3" y="3" rx="2" ry="2"/><path d="m15 9-6 6m0-6 6 6"/></symbol><symbol fill="none" stroke="currentColor" stroke-linecap="round" stroke-linejoin="round" class="aylucide aylucide-tally-5" viewBox="0 0 24 24" id="tally-5" xmlns="http://www.w3.org/2000/svg"><path d="M4 4v16M9 4v16m5-16v16m5-16v16m3-14L2 18"/></symbol><symbol fill="none" stroke="currentColor" stroke-linecap="round" stroke-linejoin="round" class="azlucide azlucide-trash-2" viewBox="0 0 24 24" id="trash-2" xmlns="http://www.w3.org/2000/svg"><path d="M3 6h18m-2 0v14c0 1-1 2-2 2H7c-1 0-2-1-2-2V6m3 0V4c0-1 1-2 2-2h4c1 0 2 1 2 2v2m-6 5v6m4-6v6"/></symbol><symbol fill="none" stroke="currentColor" stroke-linecap="round" stroke-linejoin="round" class="balucide balucide-user-round-pen" viewBox="0 0 24 24" id="user-round-pen" xmlns="http://www.w3.org/2000/svg"><path d="M2 21a8 8 0 0 1 10.821-7.487m8.557 3.113a1 1 0 0 0-3.004-3.004l-4.01 4.012a2 2 0 0 0-.506.854l-.837 2.87a.5.5 0 0 0 .62.62l2.87-.837a2 2 0 0 0 .854-.506z"/><circle cx="10" cy="8" r="5"/></symbol></svg>